<?xml version="1.0" encoding="utf-8"?>
<!-- Generator: Adobe Illustrator 20.0.0, SVG Export Plug-In . SVG Version: 6.00 Build 0)  -->
<svg version="1.1" id="Layer_1" xmlns="http://www.w3.org/2000/svg" xmlns:xlink="http://www.w3.org/1999/xlink" x="0px" y="0px"
	 viewBox="0 0 300 300" style="enable-background:new 0 0 300 300;" xml:space="preserve">
	<style type="text/css">
		.st0 {
			fill: #72C6D1;
		}

		.st1 {
			fill: url(#SVGID_1_);
		}

		.st2 {
			fill: #FFFFFF;
		}

		.st3 {
			fill: #F1F2F2;
		}

		.st4 {
			fill: #517493;
		}

		.st5 {
			fill: url(#ARROW_1_);
		}

		.st6 {
			fill: #414042;
		}

		.st7 {
			fill: #E6E7E8;
		}

		.st8 {
			fill: #3FADB4;
		}

		@-webkit-keyframes file {
			0% {
				opacity: 0;
				-webkit-transform: scale(0);
						transform: scale(0);
			}
			90% {
				opacity: 0;
				-webkit-transform: scale(0);
						transform: scale(0);
			}
			95% {
				opacity: 1;
				-webkit-transform: scale(1.1);
						transform: scale(1.1);
			}
			100% {
				opacity: 1;
				-webkit-transform: scale(1);
						transform: scale(1);
			}
		}

		@-moz-keyframes file {
			0% {
				opacity: 0;
				-moz-transform: scale(0);
					 transform: scale(0);
			}
			90% {
				opacity: 0;
				-moz-transform: scale(0);
					 transform: scale(0);
			}
			95% {
				opacity: 1;
				-moz-transform: scale(1.1);
					 transform: scale(1.1);
			}
			100% {
				opacity: 1;
				-moz-transform: scale(1);
					 transform: scale(1);
			}
		}

		@-o-keyframes file {
			0% {
				opacity: 0;
				-o-transform: scale(0);
				   transform: scale(0);
			}
			90% {
				opacity: 0;
				-o-transform: scale(0);
				   transform: scale(0);
			}
			95% {
				opacity: 1;
				-o-transform: scale(1.1);
				   transform: scale(1.1);
			}
			100% {
				opacity: 1;
				-o-transform: scale(1);
				   transform: scale(1);
			}
		}

		@keyframes file {
			0% {
				opacity: 0;
				-webkit-transform: scale(0);
				   -moz-transform: scale(0);
					 -o-transform: scale(0);
						transform: scale(0);
			}
			90% {
				opacity: 0;
				-webkit-transform: scale(0);
				   -moz-transform: scale(0);
					 -o-transform: scale(0);
						transform: scale(0);
			}
			95% {
				opacity: 1;
				-webkit-transform: scale(1.1);
				   -moz-transform: scale(1.1);
					 -o-transform: scale(1.1);
						transform: scale(1.1);
			}
			100% {
				opacity: 1;
				-webkit-transform: scale(1);
				   -moz-transform: scale(1);
					 -o-transform: scale(1);
						transform: scale(1);
			}
		}

		@-webkit-keyframes pulse {
			0% {
				opacity: 1;
				-webkit-transform: scale(1);
						transform: scale(1);
			}
			20% {
				opacity: 0.8;
			}
			100% {
				-webkit-transform: scale(1.5);
						transform: scale(1.5);
				opacity: 0;
			}
		}

		@-moz-keyframes pulse {
			0% {
				opacity: 1;
				-moz-transform: scale(1);
					 transform: scale(1);
			}
			20% {
				opacity: 0.8;
			}
			100% {
				-moz-transform: scale(1.5);
					 transform: scale(1.5);
				opacity: 0;
			}
		}

		@-o-keyframes pulse {
			0% {
				opacity: 1;
				-o-transform: scale(1);
				   transform: scale(1);
			}
			20% {
				opacity: 0.8;
			}
			100% {
				-o-transform: scale(1.5);
				   transform: scale(1.5);
				opacity: 0;
			}
		}

		@keyframes pulse {
			0% {
				opacity: 1;
				-webkit-transform: scale(1);
				   -moz-transform: scale(1);
					 -o-transform: scale(1);
						transform: scale(1);
			}
			20% {
				opacity: 0.8;
			}
			100% {
				-webkit-transform: scale(1.5);
				   -moz-transform: scale(1.5);
					 -o-transform: scale(1.5);
						transform: scale(1.5);
				opacity: 0;
			}
		}

		@-webkit-keyframes car {
			0% {
				-webkit-transform: rotate(0deg);
						transform: rotate(0deg)
			}
			25% {
				-webkit-transform: rotate(2deg);
						transform: rotate(2deg)
			}
			50% {
				-webkit-transform: rotate(-1deg);
						transform: rotate(-1deg)
			}
			75% {
				-webkit-transform: rotate(1deg);
						transform: rotate(1deg)
			}
			100% {
				-webkit-transform: rotate(0deg);
						transform: rotate(0deg)
			}
		}

		@-moz-keyframes car {
			0% {
				-moz-transform: rotate(0deg);
					 transform: rotate(0deg)
			}
			25% {
				-moz-transform: rotate(2deg);
					 transform: rotate(2deg)
			}
			50% {
				-moz-transform: rotate(-1deg);
					 transform: rotate(-1deg)
			}
			75% {
				-moz-transform: rotate(1deg);
					 transform: rotate(1deg)
			}
			100% {
				-moz-transform: rotate(0deg);
					 transform: rotate(0deg)
			}
		}

		@-o-keyframes car {
			0% {
				-o-transform: rotate(0deg);
				   transform: rotate(0deg)
			}
			25% {
				-o-transform: rotate(2deg);
				   transform: rotate(2deg)
			}
			50% {
				-o-transform: rotate(-1deg);
				   transform: rotate(-1deg)
			}
			75% {
				-o-transform: rotate(1deg);
				   transform: rotate(1deg)
			}
			100% {
				-o-transform: rotate(0deg);
				   transform: rotate(0deg)
			}
		}

		@keyframes car {
			0% {
				-webkit-transform: rotate(0deg);
				   -moz-transform: rotate(0deg);
					 -o-transform: rotate(0deg);
						transform: rotate(0deg)
			}
			25% {
				-webkit-transform: rotate(2deg);
				   -moz-transform: rotate(2deg);
					 -o-transform: rotate(2deg);
						transform: rotate(2deg)
			}
			50% {
				-webkit-transform: rotate(-1deg);
				   -moz-transform: rotate(-1deg);
					 -o-transform: rotate(-1deg);
						transform: rotate(-1deg)
			}
			75% {
				-webkit-transform: rotate(1deg);
				   -moz-transform: rotate(1deg);
					 -o-transform: rotate(1deg);
						transform: rotate(1deg)
			}
			100% {
				-webkit-transform: rotate(0deg);
				   -moz-transform: rotate(0deg);
					 -o-transform: rotate(0deg);
						transform: rotate(0deg)
			}
		}

		@-webkit-keyframes roata {
			0% {
				-webkit-transform: rotate(0deg);
						transform: rotate(0deg)
			}
			100% {
				-webkit-transform: rotate(-360deg);
						transform: rotate(-360deg)
			}
		}

		@-moz-keyframes roata {
			0% {
				-moz-transform: rotate(0deg);
					 transform: rotate(0deg)
			}
			100% {
				-moz-transform: rotate(-360deg);
					 transform: rotate(-360deg)
			}
		}

		@-o-keyframes roata {
			0% {
				-o-transform: rotate(0deg);
				   transform: rotate(0deg)
			}
			100% {
				-o-transform: rotate(-360deg);
				   transform: rotate(-360deg)
			}
		}

		@keyframes roata {
			0% {
				-webkit-transform: rotate(0deg);
				   -moz-transform: rotate(0deg);
					 -o-transform: rotate(0deg);
						transform: rotate(0deg)
			}
			100% {
				-webkit-transform: rotate(-360deg);
				   -moz-transform: rotate(-360deg);
					 -o-transform: rotate(-360deg);
						transform: rotate(-360deg)
			}
		}

		@-webkit-keyframes sageata {
			0% {
				-webkit-transform: scale(0);
						transform: scale(0)
			}
			95% {
				-webkit-transform: scale(0);
						transform: scale(0)
			}
			98% {
				-webkit-transform: scale(1.4);
						transform: scale(1.4)
			}
			100% {
				-webkit-transform: scale(1);
						transform: scale(1)
			}
		}

		@-moz-keyframes sageata {
			0% {
				-moz-transform: scale(0);
					 transform: scale(0)
			}
			95% {
				-moz-transform: scale(0);
					 transform: scale(0)
			}
			98% {
				-moz-transform: scale(1.4);
					 transform: scale(1.4)
			}
			100% {
				-moz-transform: scale(1);
					 transform: scale(1)
			}
		}

		@-o-keyframes sageata {
			0% {
				-o-transform: scale(0);
				   transform: scale(0)
			}
			95% {
				-o-transform: scale(0);
				   transform: scale(0)
			}
			98% {
				-o-transform: scale(1.4);
				   transform: scale(1.4)
			}
			100% {
				-o-transform: scale(1);
				   transform: scale(1)
			}
		}

		@keyframes sageata {
			0% {
				-webkit-transform: scale(0);
				   -moz-transform: scale(0);
					 -o-transform: scale(0);
						transform: scale(0)
			}
			95% {
				-webkit-transform: scale(0);
				   -moz-transform: scale(0);
					 -o-transform: scale(0);
						transform: scale(0)
			}
			98% {
				-webkit-transform: scale(1.4);
				   -moz-transform: scale(1.4);
					 -o-transform: scale(1.4);
						transform: scale(1.4)
			}
			100% {
				-webkit-transform: scale(1);
				   -moz-transform: scale(1);
					 -o-transform: scale(1);
						transform: scale(1)
			}
		}

		svg:hover .file, svg:hover .pulse, svg:hover .car, svg:hover .roata, svg:hover .sageata {
			transform-box: fill-box;
			-webkit-transform-origin: center center;
			   -moz-transform-origin: center center;
				-ms-transform-origin: center center;
				 -o-transform-origin: center center;
					transform-origin: center center;
		}

		svg:hover .file {
			-webkit-animation: file 2.8s ease-in-out 1;
			   -moz-animation: file 2.8s ease-in-out 1;
				 -o-animation: file 2.8s ease-in-out 1;
					animation: file 2.8s ease-in-out 1;
		}

		svg:hover .pulse {
			-webkit-animation: pulse 1.5s ease-in-out 2;
			   -moz-animation: pulse 1.5s ease-in-out 2;
				 -o-animation: pulse 1.5s ease-in-out 2;
					animation: pulse 1.5s ease-in-out 2;
		}

		svg:hover .car {
			-webkit-animation: car 1.5s ease-in-out 2;
			   -moz-animation: car 1.5s ease-in-out 2;
				 -o-animation: car 1.5s ease-in-out 2;
					animation: car 1.5s ease-in-out 2;
		}

		svg:hover .roata {
			-webkit-animation: roata 3s ease-in-out 1;
			   -moz-animation: roata 3s ease-in-out 1;
				 -o-animation: roata 3s ease-in-out 1;
					animation: roata 3s ease-in-out 1;
		}

		svg:hover .sageata {
			-webkit-animation: sageata 3s ease-in-out 1;
			   -moz-animation: sageata 3s ease-in-out 1;
				 -o-animation: sageata 3s ease-in-out 1;
					animation: sageata 3s ease-in-out 1;
		}
	</style>
	<circle id="PULSE" class="st0 pulse" cx="150" cy="150" r="94.2"/>
	<linearGradient id="SVGID_1_" gradientUnits="userSpaceOnUse" x1="83.5952" y1="216.4048" x2="217.1289" y2="82.8711">
		<stop  offset="0" style="stop-color:#80D2D8"/>
		<stop  offset="1" style="stop-color:#2889AE"/>
	</linearGradient>
	<circle class="st1" cx="150" cy="150" r="94.2"/>
	<path id="LPTbase" class="st2" d="M77.5,186.1c0,1.8,4.9,3.3,10.9,3.3h123.2c6,0,10.9-1.5,10.9-3.3H77.5z"/>
	<path id="LPTtop" class="st3" d="M203.2,110.6H96.8c-3.1,0-5.6,2.5-5.6,5.6v69.9h117.7v-69.9C208.8,113.1,206.3,110.6,203.2,110.6z"
		/>
	<rect id="SCREEN" x="96" y="116.3" class="st4" width="107.3" height="65.4"/>
	<linearGradient id="ARROW_1_" gradientUnits="userSpaceOnUse" x1="149.9675" y1="231.0644" x2="149.9675" y2="188">
		<stop  offset="0" style="stop-color:#FFFFFF"/>
		<stop  offset="0.4745" style="stop-color:#FFFFFF;stop-opacity:0.8832"/>
		<stop  offset="0.8903" style="stop-color:#FFFFFF;stop-opacity:0"/>
	</linearGradient>
	<polygon id="ARROW" class="st5 sageata" points="161,206.3 161,188 139,188 139,206.3 127.6,204.4 149.9,231.1 172.3,204.4 "/>
	<g>
		<path class="st6" d="M130.3,153.2c-4,0-7.2,3.2-7.2,7.2c0,4,3.2,7.2,7.2,7.2c4,0,7.2-3.2,7.2-7.2
			C137.5,156.4,134.3,153.2,130.3,153.2z M130.3,166.1c-3.2,0-5.7-2.6-5.7-5.7c0-3.2,2.6-5.7,5.7-5.7c3.2,0,5.7,2.6,5.7,5.7
			C136,163.5,133.5,166.1,130.3,166.1z"/>
		<path class="st7 roata" d="M130.3,154.4c-3.3,0-6,2.7-6,6c0,3.3,2.7,6,6,6c3.3,0,6-2.7,6-6C136.3,157,133.6,154.4,130.3,154.4z
			 M130.3,155.1c0.7,0,1.3,0.2,1.8,0.6c-0.1,0.7-0.8,2.9-1.8,2.9c-0.9,0-1.7-2.1-1.8-2.9C129,155.3,129.6,155.1,130.3,155.1z
			 M131.4,160.4c0,0.6-0.5,1.1-1.1,1.1s-1.1-0.5-1.1-1.1c0-0.6,0.5-1.1,1.1-1.1S131.4,159.8,131.4,160.4z M125.8,157.6
			c0.4-0.6,0.9-1,1.4-1.2c0.6,0.5,2,2.2,1.5,3c-0.5,0.8-2.7,0.3-3.4,0C125.3,158.8,125.5,158.1,125.8,157.6z M127.2,164.2
			c-0.5-0.2-1.1-0.6-1.4-1.2c-0.3-0.6-0.5-1.3-0.4-1.8c0.7-0.3,2.9-0.7,3.4,0.1C129.2,162,127.8,163.8,127.2,164.2z M130.3,165.6
			c-0.7,0-1.3-0.2-1.8-0.6c0.1-0.7,0.8-2.9,1.8-2.9c0.9,0,1.7,2.1,1.8,2.9C131.6,165.4,131,165.6,130.3,165.6z M134.8,163.1
			c-0.4,0.6-0.9,1-1.4,1.2c-0.6-0.5-2-2.2-1.5-3c0.5-0.8,2.7-0.3,3.4,0C135.3,161.9,135.2,162.5,134.8,163.1z M131.9,159.4
			c-0.5-0.8,1-2.5,1.6-3c0.5,0.2,1.1,0.6,1.4,1.2c0.3,0.6,0.5,1.3,0.4,1.8C134.6,159.8,132.3,160.2,131.9,159.4z"/>
	</g>
	<g>
		<path class="st6" d="M172.5,153.2c-4,0-7.2,3.2-7.2,7.2c0,4,3.2,7.2,7.2,7.2c4,0,7.2-3.2,7.2-7.2
			C179.7,156.4,176.5,153.2,172.5,153.2z M172.5,166.1c-3.2,0-5.7-2.6-5.7-5.7c0-3.2,2.6-5.7,5.7-5.7c3.2,0,5.7,2.6,5.7,5.7
			C178.2,163.5,175.7,166.1,172.5,166.1z"/>
		<path class="st7 roata" d="M172.5,154.4c-3.3,0-6,2.7-6,6c0,3.3,2.7,6,6,6c3.3,0,6-2.7,6-6C178.5,157,175.8,154.4,172.5,154.4z
			 M172.5,155.1c0.7,0,1.3,0.2,1.8,0.6c-0.1,0.7-0.8,2.9-1.8,2.9c-0.9,0-1.7-2.1-1.8-2.9C171.2,155.3,171.8,155.1,172.5,155.1z
			 M173.6,160.4c0,0.6-0.5,1.1-1.1,1.1c-0.6,0-1.1-0.5-1.1-1.1c0-0.6,0.5-1.1,1.1-1.1C173.1,159.3,173.6,159.8,173.6,160.4z
			 M168,157.6c0.4-0.6,0.9-1,1.4-1.2c0.6,0.5,2,2.2,1.5,3c-0.5,0.8-2.7,0.3-3.4,0C167.5,158.8,167.7,158.1,168,157.6z M169.3,164.2
			c-0.5-0.2-1.1-0.6-1.4-1.2c-0.3-0.6-0.5-1.3-0.4-1.8c0.7-0.3,2.9-0.7,3.4,0.1C171.4,162,169.9,163.8,169.3,164.2z M172.5,165.6
			c-0.7,0-1.3-0.2-1.8-0.6c0.1-0.7,0.8-2.9,1.8-2.9c0.9,0,1.7,2.1,1.8,2.9C173.8,165.4,173.2,165.6,172.5,165.6z M177,163.1
			c-0.4,0.6-0.9,1-1.4,1.2c-0.6-0.5-2-2.2-1.5-3c0.5-0.8,2.7-0.3,3.4,0C177.5,161.9,177.3,162.5,177,163.1z M174.1,159.4
			c-0.5-0.8,1-2.5,1.6-3c0.5,0.2,1.1,0.6,1.4,1.2c0.3,0.6,0.5,1.3,0.4,1.8C176.7,159.8,174.5,160.2,174.1,159.4z"/>
	</g>
	<path class="st2 car" d="M151.5,136.3c-5.4,0.2-8.6,2.4-8.6,2.4c-4.5,2.4-7.1,5.8-7.1,5.8c-8.8,1.5-15.5,3.4-18,7.2l8.1-3.2
		c0,0-3.3,4.5-4.7,4.7c-1,0.1-3,0.3-4.2,0.3c-0.2,0.8-0.2,1.6-0.2,2.5c0.1,0.7,0.4,1.6,0.8,2.3c1,1.5,2.4,2.6,4,3.2
		c-0.1-0.5-0.1-1-0.1-1.5c0-4.9,4-8.8,8.9-8.7c3.5,0.1,6.6,2.3,7.9,5.6c0.8,1.9,0.8,3.6,0.4,5.2c5.6,0,18.6,0.6,25,0.5
		c-0.2-1.1-0.3-2.3,0-3.5c0.8-4.1,4.4-7.1,8.5-7.2c4.5-0.1,8.2,3.2,8.9,7.5c1.4-1.4,2-2.8,2-2.8c0.4-9.6-2.9-13.9-8.2-17
		C168,135.6,156.9,136.1,151.5,136.3z M137.5,144.5c0,0,4.9-6.4,12-6.7c4.8-0.2,10.3-0.4,14.5,0.4c3.7,0.7,7.3,1.9,9.8,4.7
		c0,0,0.1,0.1,0.1,0.1c0.2,0.2,0,0.6-0.3,0.6C168.3,143.9,137.5,144.5,137.5,144.5z"/>
	<g>
		 <polygon class="st2 file" points="161.6,71.1 115.3,71.1 115.3,167.6 184.7,167.6 184.7,94.6 	"/>
		<polygon class="st8 file" points="162.2,71.3 162.2,94.6 184.7,94.6 	"/>
		<g>
			 <path class="st8 file" d="M132,146.2c-2.6-1-3.8-1.6-3.8-2.9c0-1.1,1-2,3-2c2,0,3.5,0.6,4.3,1l1-3.7c-1.2-0.5-2.9-1-5.2-1
				c-4.8,0-7.7,2.7-7.7,6.2c0,3,2.2,4.9,5.6,6c2.5,0.9,3.4,1.6,3.4,2.9c0,1.3-1.1,2.2-3.3,2.2c-2,0-3.9-0.6-5.1-1.3l-0.9,3.8
				c1.2,0.6,3.5,1.2,5.8,1.2c5.6,0,8.3-2.9,8.3-6.3C137.3,149.4,135.6,147.5,132,146.2z"/>
			<path class="st8 file" d="M150.1,146.6c-0.7,2.3-1.3,4.6-1.9,7.3h-0.1c-0.5-2.6-1.1-4.9-1.8-7.4l-2.5-8.7h-5.1l6.6,20.4h5.4l6.9-20.4
				h-4.9L150.1,146.6z"/>
			<path class="st8 file" d="M169.1,146.7v3.6h3.1v4.2c-0.2,0.2-1.2,0.3-2.3,0.3c-3.8,0-6.4-2.5-6.4-6.7c0-4.4,2.9-6.6,6.8-6.6
				c2.2,0,3.6,0.4,4.8,0.9l1-3.7c-1-0.5-3-1-5.7-1c-6.7,0-11.7,3.9-11.7,10.7c0,3,1,5.7,2.9,7.4c1.9,1.8,4.6,2.8,8.4,2.8
				c2.7,0,5.4-0.7,6.9-1.2v-10.7H169.1z"/>
		</g>
	</g>
</svg>
