<?xml version="1.0" encoding="utf-8"?>
<!-- Generator: Adobe Illustrator 20.0.0, SVG Export Plug-In . SVG Version: 6.00 Build 0)  -->
<svg version="1.1" id="Layer_1" xmlns="http://www.w3.org/2000/svg" xmlns:xlink="http://www.w3.org/1999/xlink" x="0px" y="0px"
	 viewBox="0 0 300 300" style="enable-background:new 0 0 300 300;" xml:space="preserve">
	<style type="text/css">
		.st0{fill:#192034;}
		.st1{fill:#2E3C57;}
		.st2{fill:#505F80;}
		.st3{fill:#3EFFFA;}
		.st4{fill:#3FADB4;}
		.st5{fill:#F1F2F2;}
		.st6{fill:#72C6D1;}
		.st7{fill:url(#SVGID_1_);}
		.st8{fill:#FFFFFF;}
		@-webkit-keyframes ball1 {
			0% {opacity: 1; -webkit-transform: scale(0); transform: scale(0);}
			5% {opacity: 1; -webkit-transform: scale(1.05); transform: scale(1.05);}
			7% {opacity: 1;-webkit-transform: scale(1);transform: scale(1);}
			21% {-webkit-transform: rotate(0deg) scale(1);transform: rotate(0deg) scale(1)}
			40% {-webkit-transform: rotate(-360deg) scale(0.8);transform: rotate(-360deg) scale(0.8)}
			70% {-webkit-transform: rotate(-360deg) scale(1);transform: rotate(-360deg) scale(1)}
			100% {-webkit-transform: rotate(-360deg) scale(1);transform: rotate(-360deg) scale(1)}
		}
		@-moz-keyframes ball1 {
			0% {opacity: 1; -moz-transform: scale(0); transform: scale(0);}
			5% {opacity: 1; -moz-transform: scale(1.05); transform: scale(1.05);}
			7% {opacity: 1;-moz-transform: scale(1);transform: scale(1);}
			21% {-moz-transform: rotate(0deg) scale(1);transform: rotate(0deg) scale(1)}
			40% {-moz-transform: rotate(-360deg) scale(0.8);transform: rotate(-360deg) scale(0.8)}
			70% {-moz-transform: rotate(-360deg) scale(1);transform: rotate(-360deg) scale(1)}
			100% {-moz-transform: rotate(-360deg) scale(1);transform: rotate(-360deg) scale(1)}
		}
		@-o-keyframes ball1 {
			0% {opacity: 1; -o-transform: scale(0); transform: scale(0);}
			5% {opacity: 1; -o-transform: scale(1.05); transform: scale(1.05);}
			7% {opacity: 1;-o-transform: scale(1);transform: scale(1);}
			21% {-o-transform: rotate(0deg) scale(1);transform: rotate(0deg) scale(1)}
			40% {-o-transform: rotate(-360deg) scale(0.8);transform: rotate(-360deg) scale(0.8)}
			70% {-o-transform: rotate(-360deg) scale(1);transform: rotate(-360deg) scale(1)}
			100% {-o-transform: rotate(-360deg) scale(1);transform: rotate(-360deg) scale(1)}
		}
		@keyframes ball1 {
			0% {opacity: 1; -webkit-transform: scale(0); -moz-transform: scale(0); -o-transform: scale(0); transform: scale(0);}
			5% {opacity: 1; -webkit-transform: scale(1.05); -moz-transform: scale(1.05); -o-transform: scale(1.05); transform: scale(1.05);}
			7% {opacity: 1;-webkit-transform: scale(1);-moz-transform: scale(1);-o-transform: scale(1);transform: scale(1);}
			21% {-webkit-transform: rotate(0deg) scale(1);-moz-transform: rotate(0deg) scale(1);-o-transform: rotate(0deg) scale(1);transform: rotate(0deg) scale(1)}
			40% {-webkit-transform: rotate(-360deg) scale(0.8);-moz-transform: rotate(-360deg) scale(0.8);-o-transform: rotate(-360deg) scale(0.8);transform: rotate(-360deg) scale(0.8)}
			70% {-webkit-transform: rotate(-360deg) scale(1);-moz-transform: rotate(-360deg) scale(1);-o-transform: rotate(-360deg) scale(1);transform: rotate(-360deg) scale(1)}
			100% {-webkit-transform: rotate(-360deg) scale(1);-moz-transform: rotate(-360deg) scale(1);-o-transform: rotate(-360deg) scale(1);transform: rotate(-360deg) scale(1)}
		}
		@-webkit-keyframes plus {
			0% {opacity: 0; -webkit-transform: scale(0); transform: scale(0);}
			15% {opacity: 0; -webkit-transform: scale(0); transform: scale(0);}
			21% {opacity: 1;-webkit-transform: scale(1);transform: scale(1);}
			30% {opacity: 0;-webkit-transform: scale(1);transform: scale(1);}
			/* 35% {opacity: 0; transform: scale(0);}
			44% {opacity: 1;transform: scale(1);}
			53% {opacity: 0;transform: scale(1);} */
			100% {opacity: 0;-webkit-transform: scale(1);transform: scale(1);}
		}
		@-moz-keyframes plus {
			0% {opacity: 0; -moz-transform: scale(0); transform: scale(0);}
			15% {opacity: 0; -moz-transform: scale(0); transform: scale(0);}
			21% {opacity: 1;-moz-transform: scale(1);transform: scale(1);}
			30% {opacity: 0;-moz-transform: scale(1);transform: scale(1);}
			/* 35% {opacity: 0; transform: scale(0);}
			44% {opacity: 1;transform: scale(1);}
			53% {opacity: 0;transform: scale(1);} */
			100% {opacity: 0;-moz-transform: scale(1);transform: scale(1);}
		}
		@-o-keyframes plus {
			0% {opacity: 0; -o-transform: scale(0); transform: scale(0);}
			15% {opacity: 0; -o-transform: scale(0); transform: scale(0);}
			21% {opacity: 1;-o-transform: scale(1);transform: scale(1);}
			30% {opacity: 0;-o-transform: scale(1);transform: scale(1);}
			/* 35% {opacity: 0; transform: scale(0);}
			44% {opacity: 1;transform: scale(1);}
			53% {opacity: 0;transform: scale(1);} */
			100% {opacity: 0;-o-transform: scale(1);transform: scale(1);}
		}
		@keyframes plus {
			0% {opacity: 0; -webkit-transform: scale(0); -moz-transform: scale(0); -o-transform: scale(0); transform: scale(0);}
			15% {opacity: 0; -webkit-transform: scale(0); -moz-transform: scale(0); -o-transform: scale(0); transform: scale(0);}
			21% {opacity: 1;-webkit-transform: scale(1);-moz-transform: scale(1);-o-transform: scale(1);transform: scale(1);}
			30% {opacity: 0;-webkit-transform: scale(1);-moz-transform: scale(1);-o-transform: scale(1);transform: scale(1);}
			/* 35% {opacity: 0; transform: scale(0);}
			44% {opacity: 1;transform: scale(1);}
			53% {opacity: 0;transform: scale(1);} */
			100% {opacity: 0;-webkit-transform: scale(1);-moz-transform: scale(1);-o-transform: scale(1);transform: scale(1);}
		}
		@-webkit-keyframes pulse {
			0% {opacity: 1; -webkit-transform: scale(1); transform: scale(1);}
			20% {opacity: 0.8;}
			100% {-webkit-transform: scale(1.5);transform: scale(1.5); opacity: 0;}
		}
		@-moz-keyframes pulse {
			0% {opacity: 1; -moz-transform: scale(1); transform: scale(1);}
			20% {opacity: 0.8;}
			100% {-moz-transform: scale(1.5);transform: scale(1.5); opacity: 0;}
		}
		@-o-keyframes pulse {
			0% {opacity: 1; -o-transform: scale(1); transform: scale(1);}
			20% {opacity: 0.8;}
			100% {-o-transform: scale(1.5);transform: scale(1.5); opacity: 0;}
		}
		@keyframes pulse {
			0% {opacity: 1; -webkit-transform: scale(1); -moz-transform: scale(1); -o-transform: scale(1); transform: scale(1);}
			20% {opacity: 0.8;}
			100% {-webkit-transform: scale(1.5);-moz-transform: scale(1.5);-o-transform: scale(1.5);transform: scale(1.5); opacity: 0;}
		}
		svg:hover .ball1, svg:hover .plus, svg:hover .pulse {
			transform-box: fill-box;
			-webkit-transform-origin: center center;
			   -moz-transform-origin: center center;
				-ms-transform-origin: center center;
				 -o-transform-origin: center center;
					transform-origin: center center;
		}
		svg:hover .ball1 {
			-webkit-animation: ball1 5s ease-in-out 1;
			   -moz-animation: ball1 5s ease-in-out 1;
				 -o-animation: ball1 5s ease-in-out 1;
					animation: ball1 5s ease-in-out 1;
		}
		svg:hover .plus {
			-webkit-animation: plus 5s ease-in-out 1;
			   -moz-animation: plus 5s ease-in-out 1;
				 -o-animation: plus 5s ease-in-out 1;
					animation: plus 5s ease-in-out 1;
		}
		svg:hover .pulse {
			-webkit-animation: pulse 1.5s ease-in-out 2;
			   -moz-animation: pulse 1.5s ease-in-out 2;
				 -o-animation: pulse 1.5s ease-in-out 2;
					animation: pulse 1.5s ease-in-out 2;
		}
	</style>
	<circle id="PULSE" class="st6 pulse" cx="150" cy="150" r="100"/>
	<linearGradient id="SVGID_1_" gradientUnits="userSpaceOnUse" x1="79.5034" y1="220.4966" x2="221.2653" y2="78.7347">
		<stop  offset="0" style="stop-color:#80D2D8"/>
		<stop  offset="1" style="stop-color:#2889AE"/>
	</linearGradient>
	<circle class="st7" cx="150" cy="150" r="100"/>
	<path class="st8 ball1" d="M130.7,181.2c-6.2-11.9-15-18.3-19.2-20.7c0.7-4.6,2-9,3.7-13.2c17.2,16.4,40.4,26.5,66,26.5
		c6.8,0,13.5-0.7,19.9-2.1c-6.6,16.6-21,29.2-38.7,33.2C150.9,200.6,136.9,193.1,130.7,181.2z M185.7,109.6
		c-4.2-0.9-8.5-1.4-12.9-1.4c-14.4,0-27.7,5-38.2,13.2c5.7,5.6,14.5,7.8,42,3c7-1.2,14.4-0.8,21.7,0.6
		C195.1,119.2,190.8,114,185.7,109.6z M110.7,168.4c0,0.6,0,1.3,0,1.9c0,8.4,1.7,16.4,4.7,23.8c9,7.3,20.5,11.8,32.9,12.2
		c-9.4-5-18.7-12-23.8-21.8C120.3,176.4,114.6,171.3,110.7,168.4z M104.9,182.7c-0.7-4-1.1-8.2-1.1-12.4c0-1.9,0.1-3.8,0.3-5.7
		c-2.9-1-5.1-0.9-6.5,0.3c-0.2,0.2-0.4,0.3-0.6,0.6C98.5,171.7,101.3,177.5,104.9,182.7z M150,96.4c-1.8,0-3.6,0.1-5.3,0.3
		c-7.5,4.2-12.2,9-13.3,14.2c-0.4,1.6-0.3,3.1-0.1,4.4c11.5-8.7,25.9-13.9,41.4-13.9C165.7,98.2,158.1,96.4,150,96.4z M181.1,166.9
		c7.7,0,15.2-1,22.4-2.9c1-4,1.5-8.3,1.5-12.6c0-6.4-1.1-12.6-3.2-18.4c-8.1-2-16.5-3-24.1-1.7c-27.2,4.8-39.8,3.4-48.3-5.1
		c0,0-0.1-0.1-0.1-0.2c-4.4,4.3-8.1,9.2-11,14.6C134.3,156.8,156.6,166.9,181.1,166.9z M109.9,141.9c-3.7-4.1-7-8.6-9.9-13.3
		c-3.2,6.9-4.9,14.6-4.9,22.8c0,2.3,0.2,4.5,0.4,6.7c2.7-1.2,5.8-1.3,9.5-0.4C105.9,152.2,107.6,146.9,109.9,141.9z M103.9,121.5
		c2.7,4.9,5.9,9.5,9.5,13.7c3.3-5.6,7.4-10.7,12.1-15.1c-1.4-3.4-1.7-7.1-0.9-10.8c0.6-2.6,1.8-5.6,4.2-8.7
		C118.5,105,109.9,112.3,103.9,121.5z"/>
	<path class="st2 plus" d="M211,122.2c0,6.6-5.4,12-12,12h-28c-6.6,0-12-5.4-12-12v-28c0-6.6,5.4-12,12-12h28c6.6,0,12,5.4,12,12V122.2z"
		/>
	<polygon class="st8 plus" points="188,105.2 188,95.2 182,95.2 182,105.2 172,105.2 172,111.2 182,111.2 182,121.2 188,121.2 188,111.2
		198,111.2 198,105.2 "/>
</svg>
