<?xml version="1.0" encoding="utf-8"?>
<!-- Generator: Adobe Illustrator 20.1.0, SVG Export Plug-In . SVG Version: 6.00 Build 0)  -->
<svg version="1.1" xmlns="http://www.w3.org/2000/svg" xmlns:xlink="http://www.w3.org/1999/xlink" x="0px" y="0px"
	 viewBox="0 0 800 600" style="enable-background:new 0 0 800 600;" xml:space="preserve">
<style type="text/css">
	.st0{display:none;}
	.st1{fill:none;stroke:#F4F4F4;stroke-width:11;stroke-miterlimit:10;}
	.st2{filter:url(#Adobe_OpacityMaskFilter);}
	.st3{opacity:0.75;mask:url(#SVGID_1_);}
	.st4{fill:none;stroke:#232323;stroke-width:11;stroke-miterlimit:10;}
</style>
<g id="Layer_1" class="st0">
</g>
<g id="Layer_2">
	<g>
		
			<image style="overflow:visible;" width="2308" height="2491" xlink:href="C67C8604.png"  transform="matrix(0.24 0 0 0.24 123.322 -3.6986)">
		</image>
		<g>
			<g>
				<g>
					<g>
						<g>
							<g>
								<polyline class="st1" points="595.7,238.9 657.2,372.1 460.4,521.4 436,580 435.6,580 								"/>
								<polyline class="st1" points="207.2,20 204.8,238.9 256.5,130.2 								"/>
								<polyline class="st1" points="283.2,185.8 256.5,130.2 207.2,20 369.1,128.2 								"/>
								<line class="st1" x1="204.8" y1="238.9" x2="283.2" y2="185.8"/>
								<line class="st1" x1="265.4" y1="335.6" x2="318.3" y2="321.8"/>
								<polyline class="st1" points="143.8,372.1 204.8,238.9 265.4,335.6 								"/>
								<polyline class="st1" points="340.6,521.4 143.8,372.1 265.4,335.6 								"/>
								<polyline class="st1" points="348.3,442.9 265.4,335.6 340.6,521.4 364.9,580 								"/>
								<polyline class="st1" points="593.3,20 595.7,238.9 544,130.2 								"/>
								<polyline class="st1" points="517.3,185.8 544,130.2 593.3,20 431.4,128.2 								"/>
								<line class="st1" x1="595.7" y1="238.9" x2="517.3" y2="185.8"/>
								<line class="st1" x1="535.1" y1="335.6" x2="482.2" y2="321.8"/>
								<polyline class="st1" points="656.7,372.1 595.7,238.9 535.1,335.6 								"/>
								<polyline class="st1" points="459.9,521.4 656.7,372.1 535.1,335.6 								"/>
								<polyline class="st1" points="452.7,442.9 535.1,335.6 459.9,521.4 435.6,580 								"/>
								<polygon class="st1" points="364.9,580 400.7,510.8 435.6,580 								"/>
								<polyline class="st1" points="482.2,321.8 452.7,442.9 400.7,510.8 348.3,442.9 318.3,321.8 								"/>
								<polygon class="st1" points="318.3,321.8 283.2,185.8 369.1,128.2 431.4,128.2 517.3,185.8 482.2,321.8 								"/>
							</g>
						</g>
					</g>
					<defs>
						<filter id="Adobe_OpacityMaskFilter" filterUnits="userSpaceOnUse" x="131.8" y="4.8" width="536.8" height="580.7">
							<feFlood  style="flood-color:white;flood-opacity:1" result="back"/>
							<feBlend  in="SourceGraphic" in2="back" mode="normal"/>
						</filter>
					</defs>
					<mask maskUnits="userSpaceOnUse" x="131.8" y="4.8" width="536.8" height="580.7" id="SVGID_1_">
						<g class="st2">
							
								<image style="overflow:visible;" width="2254" height="2437" xlink:href="C67C8604.jpg"  transform="matrix(0.24 0 0 0.24 129.8259 2.8053)">
							</image>
						</g>
					</mask>
					<g class="st3">
						<g>
							<g>
								<polyline class="st4" points="595.7,238.9 657.2,372.1 460.4,521.4 436,580 435.6,580 								"/>
								<polyline class="st4" points="207.2,20 204.8,238.9 256.5,130.2 								"/>
								<polyline class="st4" points="283.2,185.8 256.5,130.2 207.2,20 369.1,128.2 								"/>
								<line class="st4" x1="204.8" y1="238.9" x2="283.2" y2="185.8"/>
								<line class="st4" x1="265.4" y1="335.6" x2="318.3" y2="321.8"/>
								<polyline class="st4" points="143.8,372.1 204.8,238.9 265.4,335.6 								"/>
								<polyline class="st4" points="340.6,521.4 143.8,372.1 265.4,335.6 								"/>
								<polyline class="st4" points="348.3,442.9 265.4,335.6 340.6,521.4 364.9,580 								"/>
								<polyline class="st4" points="593.3,20 595.7,238.9 544,130.2 								"/>
								<polyline class="st4" points="517.3,185.8 544,130.2 593.3,20 431.4,128.2 								"/>
								<line class="st4" x1="595.7" y1="238.9" x2="517.3" y2="185.8"/>
								<line class="st4" x1="535.1" y1="335.6" x2="482.2" y2="321.8"/>
								<polyline class="st4" points="656.7,372.1 595.7,238.9 535.1,335.6 								"/>
								<polyline class="st4" points="459.9,521.4 656.7,372.1 535.1,335.6 								"/>
								<polyline class="st4" points="452.7,442.9 535.1,335.6 459.9,521.4 435.6,580 								"/>
								<polygon class="st4" points="364.9,580 400.7,510.8 435.6,580 								"/>
								<polyline class="st4" points="482.2,321.8 452.7,442.9 400.7,510.8 348.3,442.9 318.3,321.8 								"/>
								<polygon class="st4" points="318.3,321.8 283.2,185.8 369.1,128.2 431.4,128.2 517.3,185.8 482.2,321.8 								"/>
							</g>
						</g>
					</g>
				</g>
			</g>
		</g>
	</g>
</g>
</svg>
